<?xml version="1.0" encoding="utf-8"?>
<!-- Generator: Adobe Illustrator 16.0.0, SVG Export Plug-In . SVG Version: 6.00 Build 0)  -->
<!DOCTYPE svg PUBLIC "-//W3C//DTD SVG 1.1//EN" "http://www.w3.org/Graphics/SVG/1.1/DTD/svg11.dtd">
<svg version="1.1" id="Layer_1" xmlns="http://www.w3.org/2000/svg" xmlns:xlink="http://www.w3.org/1999/xlink" x="0px" y="0px"
	 width="104.36px" height="45.902px" viewBox="0 0 104.36 45.902" style="enable-background:new 0 0 104.36 45.902;"
	 xml:space="preserve">
<style type="text/css">
<![CDATA[
	.st0{fill:#FFFFFF;}
]]>
</style>
<polygon class="st0" points="52.206,7.505 29.301,23.361 29.301,15.662 52.206,0 75.114,15.662 75.114,23.361 "/>
<path class="st0" d="M6.49,45.902V30.513H0v-4.549l20.197-12.98l20.198,12.98v4.549h-6.424v15.389H6.49z M11.155,25.162V41.22
	h18.132V25.162l-9.09-5.42L11.155,25.162z"/>
<path class="st0" d="M70.454,45.902V30.513h-6.49v-4.549l20.196-12.98l20.2,12.98v4.549h-6.425v15.389H70.454z M75.116,25.162V41.22
	h18.133V25.162l-9.089-5.42L75.116,25.162z"/>
<rect x="38.326" y="36.537" class="st0" width="27.762" height="4.686"/>
<path class="st0" d="M55.688,16.466c0,1.922-1.557,3.482-3.482,3.482c-1.921,0-3.48-1.561-3.48-3.482c0-1.924,1.56-3.482,3.48-3.482
	C54.132,12.984,55.688,14.542,55.688,16.466z"/>
<g>
</g>
<g>
</g>
<g>
</g>
<g>
</g>
<g>
</g>
<g>
</g>
</svg>
